<svg xmlns="http://www.w3.org/2000/svg" width="20" height="21" viewBox="0 0 20 21" fill="none">
  <path d="M8.39062 11.3045C8.73613 11.7664 9.17694 12.1486 9.68315 12.4251C10.1894 12.7017 10.7491 12.8662 11.3245 12.9074C11.8998 12.9486 12.4773 12.8656 13.0178 12.664C13.5582 12.4623 14.049 12.1469 14.4568 11.7389L16.8704 9.32532C17.6032 8.56663 18.0086 7.5505 17.9995 6.49577C17.9903 5.44104 17.5672 4.4321 16.8214 3.68627C16.0756 2.94043 15.0666 2.51737 14.0119 2.50821C12.9572 2.49904 11.941 2.90451 11.1824 3.63727L9.79856 5.01302" stroke="#7B8EC8" stroke-width="1.2" stroke-linecap="round" stroke-linejoin="round"/>
  <path d="M11.609 9.69545C11.2635 9.23355 10.8227 8.85135 10.3165 8.57478C9.81026 8.29822 9.2505 8.13376 8.67514 8.09255C8.09978 8.05135 7.52229 8.13436 6.98184 8.33597C6.44139 8.53757 5.95062 8.85305 5.54281 9.261L3.12921 11.6746C2.39645 12.4333 1.99099 13.4494 2.00015 14.5042C2.00932 15.5589 2.43238 16.5678 3.17821 17.3137C3.92405 18.0595 4.93298 18.4825 5.98771 18.4917C7.04244 18.5009 8.05858 18.0954 8.81726 17.3627L10.193 15.9869" stroke="#7B8EC8" stroke-width="1.2" stroke-linecap="round" stroke-linejoin="round"/>
</svg>